<!-- <svg xmlns="http://www.w3.org/2000/svg" height="24px" viewBox="0 0 24 24" width="24px" fill="#14bdac"><path d="M0 0h24v24H0V0z" fill="none"/><path d="M11.99 2C6.47 2 2 6.47 2 12s4.47 10 9.99 10S22 17.53 22 12 17.52 2 11.99 2zM12 20c-4.42 0-8-3.58-8-8s3.58-8 8-8 8 3.58 8 8-3.58 8-8 8zm1-10.06L14.06 11l1.06-1.06L16.18 11l1.06-1.06-2.12-2.12L13 9.94zm-4.12 0L9.94 11 11 9.94 8.88 7.82 6.76 9.94 7.82 11l1.06-1.06zM12 17.5c2.33 0 4.31-1.46 5.11-3.5H6.89c.8 2.04 2.78 3.5 5.11 3.5z"/></svg> -->
<svg xmlns="http://www.w3.org/2000/svg" xmlns:xlink="http://www.w3.org/1999/xlink" height="800px" width="800px" version="1.1" id="_x32_" viewBox="0 0 512 512" xml:space="preserve">
<style type="text/css">
	.st0{fill:#000000;}
</style>
<g>
	<path class="st0" d="M510.441,322.894l-29.76-126.56c-15.073-56.252-66.047-95.363-124.286-95.363H155.604   c-58.239,0-109.212,39.11-124.285,95.363l-29.76,126.56c-7.618,36.303,13.34,72.524,48.626,84.001l1.74,0.558   c32.658,10.632,68.288-3.07,85.429-32.831l25.894-38.289c6.502-11.288,18.538-18.25,31.55-18.25h122.406   c13.012,0,25.048,6.962,31.549,18.25l25.894,38.289c17.142,29.761,52.779,43.463,85.438,32.831l1.732-0.558   C497.1,395.418,518.06,359.197,510.441,322.894z M191.046,238.081h-41.689v41.696h-36.295v-41.696H71.373v-36.279h41.689v-41.68   h36.295v41.68h41.689V238.081z M374.728,151.436c12.626,0,22.847,10.221,22.847,22.848c0,12.61-10.221,22.831-22.847,22.831   c-12.61,0-22.831-10.221-22.831-22.831C351.897,161.656,362.118,151.436,374.728,151.436z M329.049,242.801   c-12.61,0-22.839-10.23-22.839-22.856c0-12.602,10.229-22.831,22.839-22.831c12.618,0,22.839,10.229,22.839,22.831   C351.889,232.572,341.668,242.801,329.049,242.801z M374.728,288.471c-12.61,0-22.831-10.221-22.831-22.831   c0-12.627,10.221-22.848,22.831-22.848c12.626,0,22.847,10.221,22.847,22.848C397.575,278.25,387.354,288.471,374.728,288.471z    M420.406,242.801c-12.61,0-22.832-10.23-22.832-22.856c0-12.602,10.222-22.831,22.832-22.831   c12.618,0,22.847,10.229,22.847,22.831C443.253,232.572,433.024,242.801,420.406,242.801z"/>
</g>
</svg>